<?xml version="1.0" encoding="UTF-8" standalone="no"?>
<!-- Created with Inkscape (http://www.inkscape.org/) -->

<svg
   width="400mm"
   height="400mm"
   viewBox="0 0 400 400"
   version="1.1"
   id="svg1"
   xml:space="preserve"
   inkscape:export-filename="LogoBeige.png"
   inkscape:export-xdpi="96"
   inkscape:export-ydpi="96"
   inkscape:version="1.3 (0e150ed6c4, 2023-07-21)"
   sodipodi:docname="WolfGardenLogo.svg"
   xmlns:inkscape="http://www.inkscape.org/namespaces/inkscape"
   xmlns:sodipodi="http://sodipodi.sourceforge.net/DTD/sodipodi-0.dtd"
   xmlns:xlink="http://www.w3.org/1999/xlink"
   xmlns="http://www.w3.org/2000/svg"
   xmlns:svg="http://www.w3.org/2000/svg"><sodipodi:namedview
     id="namedview1"
     pagecolor="#ffffff"
     bordercolor="#000000"
     borderopacity="0.25"
     inkscape:showpageshadow="2"
     inkscape:pageopacity="0.0"
     inkscape:pagecheckerboard="0"
     inkscape:deskcolor="#d1d1d1"
     inkscape:document-units="mm"
     showguides="true"
     inkscape:zoom="0.36569515"
     inkscape:cx="120.3188"
     inkscape:cy="608.43027"
     inkscape:window-width="1920"
     inkscape:window-height="1017"
     inkscape:window-x="-8"
     inkscape:window-y="-8"
     inkscape:window-maximized="1"
     inkscape:current-layer="layer1" /><defs
     id="defs1"><linearGradient
       id="linearGradient15"
       inkscape:collect="always"><stop
         style="stop-color:#0d0d0d;stop-opacity:1;"
         offset="0"
         id="stop15" /><stop
         style="stop-color:#0d0d0d;stop-opacity:0;"
         offset="1"
         id="stop16" /></linearGradient><linearGradient
       id="linearGradient8"
       inkscape:collect="always"><stop
         style="stop-color:#000000;stop-opacity:1;"
         offset="0"
         id="stop9" /><stop
         style="stop-color:#000000;stop-opacity:0;"
         offset="1"
         id="stop10" /></linearGradient><rect
       x="452.46153"
       y="1030.6068"
       width="1160.1578"
       height="191.42602"
       id="rect2" /><linearGradient
       inkscape:collect="always"
       xlink:href="#linearGradient8"
       id="linearGradient10"
       x1="503.07129"
       y1="1119.0718"
       x2="1566.04"
       y2="1119.0718"
       gradientUnits="userSpaceOnUse" /><rect
       x="452.46153"
       y="1030.6068"
       width="1160.1578"
       height="191.42602"
       id="rect17" /><rect
       x="452.46153"
       y="1030.6068"
       width="1160.1578"
       height="191.42602"
       id="rect15" /><linearGradient
       inkscape:collect="always"
       xlink:href="#linearGradient15"
       id="linearGradient16"
       x1="231.33472"
       y1="312.52997"
       x2="309.37906"
       y2="312.52997"
       gradientUnits="userSpaceOnUse" /></defs><g
     inkscape:label="Warstwa 1"
     inkscape:groupmode="layer"
     id="layer1"><g
       id="g7"
       inkscape:label="White"
       style="display:inline;fill:#eaeaea;fill-opacity:1"><path
         style="fill:#e0ddca;fill-opacity:1"
         d="M 185.67001,228.90553 172.3765,219.39926 168.30237,208.151 c -2.24078,-6.18654 -4.1686,-11.34417 -4.28404,-11.4614 -0.11545,-0.11723 -6.34585,-4.72611 -13.84534,-10.24196 l -13.63543,-10.02883 -5.16195,-11.78529 c -2.83907,-6.48191 -5.16502,-12.00314 -5.16878,-12.26941 -0.004,-0.26626 1.04289,-3.58559 2.32589,-7.37628 l 2.33272,-6.89217 -3.06607,-38.941361 c -1.68634,-21.417748 -3.03863,-39.025413 -3.00508,-39.128144 0.0335,-0.102732 13.63377,7.670445 30.22272,17.273724 l 30.16171,17.460509 6.9461,-3.004902 c 3.82035,-1.652696 7.12012,-3.004901 7.33282,-3.004901 0.2127,0 3.49562,1.354321 7.29538,3.009604 l 6.90867,3.009604 30.15327,-17.454103 c 16.58429,-9.599757 30.18072,-17.375049 30.21427,-17.278427 0.0335,0.09662 -1.31874,17.699288 -3.00508,39.117036 l -3.06608,38.941361 2.33273,6.89217 c 1.28299,3.79069 2.32964,7.11002 2.32588,7.37628 -0.004,0.26627 -2.33206,5.79287 -5.17399,12.28134 L 262.27553,176.44267 248.559,186.531 c -7.54409,5.54859 -13.86798,10.39237 -14.05309,10.76396 -0.1851,0.37159 -2.07222,5.49948 -4.19359,11.3953 l -3.85703,10.71968 -13.364,9.52561 c -7.35019,5.23909 -13.53584,9.51451 -13.74588,9.50093 -0.21004,-0.0136 -6.36397,-4.3025 -13.6754,-9.53095 z m 5.63313,-9.08045 c -2.15947,-3.8942 -3.85606,-7.1506 -3.77022,-7.23645 0.0859,-0.0858 2.8007,-0.89118 6.033,-1.78963 l 5.87691,-1.63354 5.8267,1.6144 c 3.20468,0.88792 5.90555,1.69326 6.00192,1.78963 0.0964,0.0964 -1.59161,3.36139 -3.75108,7.25559 -2.15946,3.8942 -3.89241,7.11326 -3.85098,7.15348 0.0649,0.063 14.07251,-10.03499 14.46578,-10.42826 0.0792,-0.0792 -0.27822,-6.26952 -0.79434,-13.75621 -0.51612,-7.48669 -0.89527,-13.98795 -0.84256,-14.44725 0.0655,-0.5705 1.12907,2.09991 3.35696,8.42845 1.79362,5.09494 3.34199,9.35961 3.44082,9.47705 0.0988,0.11744 2.65606,-7.31024 5.68273,-16.50595 3.02667,-9.19571 5.55264,-16.66987 5.61327,-16.60924 0.0606,0.0606 0.48717,3.15417 0.94787,6.87453 0.4607,3.72037 0.90285,6.82952 0.98255,6.90922 0.21561,0.21561 20.97385,-15.66713 21.23176,-16.24503 0.12172,-0.27273 1.42985,-4.52999 2.90695,-9.46058 l 2.68565,-8.96471 -2.04052,-5.58117 -2.04052,-5.58116 2.30854,-32.66825 c 1.2697,-17.967529 2.27894,-32.703459 2.24276,-32.746506 -0.0362,-0.04305 -11.32907,6.331382 -25.0953,14.165397 l -25.02952,14.243659 -7.15069,-1.98439 -7.15069,-1.98439 -6.92844,1.95602 c -3.81064,1.07581 -7.13409,1.90091 -7.38544,1.83356 -0.25136,-0.0673 -11.60178,-6.467708 -25.22316,-14.223026 -13.62139,-7.755317 -24.79924,-14.061874 -24.83968,-14.01457 -0.0404,0.0473 0.96527,14.786073 2.23492,32.752816 l 2.30844,32.66682 -2.04014,5.5932 -2.04014,5.59321 2.81639,9.34708 c 2.4605,8.16592 2.9212,9.42958 3.64578,9.99998 4.9961,3.93297 20.2665,15.39717 20.37055,15.29312 0.0748,-0.0748 0.51293,-3.17993 0.97363,-6.9003 0.4607,-3.72036 0.88726,-6.81392 0.94791,-6.87458 0.0607,-0.0607 2.5857,7.41443 5.61122,16.6113 3.02552,9.19686 5.58272,16.62456 5.68268,16.50599 0.1,-0.11857 1.64926,-4.38416 3.44287,-9.4791 2.22789,-6.32854 3.29149,-8.99895 3.35697,-8.42845 0.0527,0.4593 -0.32644,6.96056 -0.84256,14.44725 -0.51612,7.48669 -0.89542,13.65372 -0.8429,13.70452 0.40411,0.39081 14.45586,10.5368 14.51434,10.47999 0.0414,-0.0402 -1.69152,-3.25932 -3.85099,-7.15352 z m -10.11962,-54.1087 -5.22941,-3.71547 -5.38094,-1.8491 -5.38094,-1.84909 -4.74188,-9.83658 c -2.60804,-5.41012 -4.67643,-9.90203 -4.59643,-9.98204 0.15142,-0.15141 27.69363,10.54472 28.1019,10.91348 0.25275,0.22831 2.68323,19.00247 2.54291,19.64276 -0.052,0.23725 -2.14628,-1.07245 -5.31521,-3.32396 z m 31.0802,3.21125 c 0.007,-1.40021 2.40014,-19.34518 2.60411,-19.52387 0.40403,-0.35394 27.95883,-11.06259 28.10064,-10.92078 0.0745,0.0745 -1.99649,4.56911 -4.60217,9.98804 l -4.73761,9.85259 -5.36775,1.85195 -5.36776,1.85194 -4.94247,3.49215 c -6.11291,4.31912 -5.69009,4.06575 -5.68699,3.40798 z m -68.1332,-55.91248 c -9.2e-4,-17.960467 0.0663,-21.564541 0.39866,-21.365885 0.21988,0.131432 5.53616,4.320739 11.81397,9.309575 l 11.41419,9.0706 -1.00198,1.23881 c -0.55108,0.68134 -3.57644,4.43646 -6.72301,8.3447 -3.14658,3.90824 -5.82683,7.13553 -5.95611,7.17176 -0.12929,0.0362 -0.42216,-1.51416 -0.65082,-3.4453 -0.22867,-1.93115 -0.50311,-3.51118 -0.60986,-3.51118 -0.10676,0 -1.86147,2.92474 -3.89937,6.49941 -2.0379,3.57468 -3.94811,6.90282 -4.24491,7.39588 -0.5236,0.86983 -0.53967,0.25431 -0.54076,-20.70837 z m 106.24375,14.12011 c -2.29374,-4.01886 -4.25818,-7.30703 -4.36542,-7.30703 -0.10725,0 -0.38208,1.58003 -0.61075,3.51118 -0.22867,1.93114 -0.52154,3.48153 -0.65082,3.4453 -0.12929,-0.0362 -2.80954,-3.26352 -5.95611,-7.17176 -3.14657,-3.90824 -6.16926,-7.6601 -6.71709,-8.33747 l -0.99605,-1.23158 11.73333,-9.32019 11.73334,-9.320201 0.0784,10.775891 c 0.0431,5.92674 0.0431,15.61047 0,21.51939 l -0.0784,10.74351 z"
         id="path14" /><text
         xml:space="preserve"
         transform="matrix(0.26458333,0,0,0.26458333,-69.577243,-25.579868)"
         id="text2"
         style="font-style:normal;font-variant:normal;font-weight:normal;font-stretch:normal;font-size:160px;font-family:Calibri;-inkscape-font-specification:Calibri;letter-spacing:2px;word-spacing:0px;white-space:pre;shape-inside:url(#rect2);fill:#e0ddca;fill-opacity:1;stroke:none;stroke-width:1.00157;stroke-dasharray:none;stroke-opacity:1"
         x="509.36008"
         y="0"><tspan
           x="501.04004"
           y="1175.0874"
           id="tspan18"><tspan
             style="font-family:Ebrima;-inkscape-font-specification:Ebrima;text-align:center;text-anchor:middle"
             id="tspan16">WOLFGARDEN</tspan><tspan
             style="font-family:Caladea;-inkscape-font-specification:Caladea"
             id="tspan17"> </tspan></tspan></text><text
         xml:space="preserve"
         style="font-style:normal;font-variant:normal;font-weight:normal;font-stretch:normal;font-size:11.2889px;line-height:0;font-family:RomanC;-inkscape-font-specification:RomanC;letter-spacing:2.64583px;white-space:pre;inline-size:152.966;fill:#e0ddca;fill-opacity:1;stroke:none;stroke-width:0.264999;stroke-dasharray:none;stroke-opacity:1"
         x="193.8936"
         y="315.14398"
         id="text5"
         transform="translate(-68.042449,-16.882712)"><tspan
           x="193.8936"
           y="315.14398"
           id="tspan20"><tspan
             style="font-family:'Sitka Display';-inkscape-font-specification:'Sitka Display';text-align:center;text-anchor:middle;stroke-width:0.265"
             id="tspan19">Wróblewscy</tspan></tspan></text></g><g
       id="g17"
       inkscape:label="Black"
       style="display:none;fill:#f2f2f2;fill-opacity:1"><path
         style="fill:#0d0d0d;fill-opacity:1"
         d="M 185.67001,228.90553 172.3765,219.39926 168.30237,208.151 c -2.24078,-6.18654 -4.1686,-11.34417 -4.28404,-11.4614 -0.11545,-0.11723 -6.34585,-4.72611 -13.84534,-10.24196 l -13.63543,-10.02883 -5.16195,-11.78529 c -2.83907,-6.48191 -5.16502,-12.00314 -5.16878,-12.26941 -0.004,-0.26626 1.04289,-3.58559 2.32589,-7.37628 l 2.33272,-6.89217 -3.06607,-38.941361 c -1.68634,-21.417748 -3.03863,-39.025413 -3.00508,-39.128144 0.0335,-0.102732 13.63377,7.670445 30.22272,17.273724 l 30.16171,17.460509 6.9461,-3.004902 c 3.82035,-1.652696 7.12012,-3.004901 7.33282,-3.004901 0.2127,0 3.49562,1.354321 7.29538,3.009604 l 6.90867,3.009604 30.15327,-17.454103 c 16.58429,-9.599757 30.18072,-17.375049 30.21427,-17.278427 0.0335,0.09662 -1.31874,17.699288 -3.00508,39.117036 l -3.06608,38.941361 2.33273,6.89217 c 1.28299,3.79069 2.32964,7.11002 2.32588,7.37628 -0.004,0.26627 -2.33206,5.79287 -5.17399,12.28134 L 262.27553,176.44267 248.559,186.531 c -7.54409,5.54859 -13.86798,10.39237 -14.05309,10.76396 -0.1851,0.37159 -2.07222,5.49948 -4.19359,11.3953 l -3.85703,10.71968 -13.364,9.52561 c -7.35019,5.23909 -13.53584,9.51451 -13.74588,9.50093 -0.21004,-0.0136 -6.36397,-4.3025 -13.6754,-9.53095 z m 5.63313,-9.08045 c -2.15947,-3.8942 -3.85606,-7.1506 -3.77022,-7.23645 0.0859,-0.0858 2.8007,-0.89118 6.033,-1.78963 l 5.87691,-1.63354 5.8267,1.6144 c 3.20468,0.88792 5.90555,1.69326 6.00192,1.78963 0.0964,0.0964 -1.59161,3.36139 -3.75108,7.25559 -2.15946,3.8942 -3.89241,7.11326 -3.85098,7.15348 0.0649,0.063 14.07251,-10.03499 14.46578,-10.42826 0.0792,-0.0792 -0.27822,-6.26952 -0.79434,-13.75621 -0.51612,-7.48669 -0.89527,-13.98795 -0.84256,-14.44725 0.0655,-0.5705 1.12907,2.09991 3.35696,8.42845 1.79362,5.09494 3.34199,9.35961 3.44082,9.47705 0.0988,0.11744 2.65606,-7.31024 5.68273,-16.50595 3.02667,-9.19571 5.55264,-16.66987 5.61327,-16.60924 0.0606,0.0606 0.48717,3.15417 0.94787,6.87453 0.4607,3.72037 0.90285,6.82952 0.98255,6.90922 0.21561,0.21561 20.97385,-15.66713 21.23176,-16.24503 0.12172,-0.27273 1.42985,-4.52999 2.90695,-9.46058 l 2.68565,-8.96471 -2.04052,-5.58117 -2.04052,-5.58116 2.30854,-32.66825 c 1.2697,-17.967529 2.27894,-32.703459 2.24276,-32.746506 -0.0362,-0.04305 -11.32907,6.331382 -25.0953,14.165397 l -25.02952,14.243659 -7.15069,-1.98439 -7.15069,-1.98439 -6.92844,1.95602 c -3.81064,1.07581 -7.13409,1.90091 -7.38544,1.83356 -0.25136,-0.0673 -11.60178,-6.467708 -25.22316,-14.223026 -13.62139,-7.755317 -24.79924,-14.061874 -24.83968,-14.01457 -0.0404,0.0473 0.96527,14.786073 2.23492,32.752816 l 2.30844,32.66682 -2.04014,5.5932 -2.04014,5.59321 2.81639,9.34708 c 2.4605,8.16592 2.9212,9.42958 3.64578,9.99998 4.9961,3.93297 20.2665,15.39717 20.37055,15.29312 0.0748,-0.0748 0.51293,-3.17993 0.97363,-6.9003 0.4607,-3.72036 0.88726,-6.81392 0.94791,-6.87458 0.0607,-0.0607 2.5857,7.41443 5.61122,16.6113 3.02552,9.19686 5.58272,16.62456 5.68268,16.50599 0.1,-0.11857 1.64926,-4.38416 3.44287,-9.4791 2.22789,-6.32854 3.29149,-8.99895 3.35697,-8.42845 0.0527,0.4593 -0.32644,6.96056 -0.84256,14.44725 -0.51612,7.48669 -0.89542,13.65372 -0.8429,13.70452 0.40411,0.39081 14.45586,10.5368 14.51434,10.47999 0.0414,-0.0402 -1.69152,-3.25932 -3.85099,-7.15352 z m -10.11962,-54.1087 -5.22941,-3.71547 -5.38094,-1.8491 -5.38094,-1.84909 -4.74188,-9.83658 c -2.60804,-5.41012 -4.67643,-9.90203 -4.59643,-9.98204 0.15142,-0.15141 27.69363,10.54472 28.1019,10.91348 0.25275,0.22831 2.68323,19.00247 2.54291,19.64276 -0.052,0.23725 -2.14628,-1.07245 -5.31521,-3.32396 z m 31.0802,3.21125 c 0.007,-1.40021 2.40014,-19.34518 2.60411,-19.52387 0.40403,-0.35394 27.95883,-11.06259 28.10064,-10.92078 0.0745,0.0745 -1.99649,4.56911 -4.60217,9.98804 l -4.73761,9.85259 -5.36775,1.85195 -5.36776,1.85194 -4.94247,3.49215 c -6.11291,4.31912 -5.69009,4.06575 -5.68699,3.40798 z m -68.1332,-55.91248 c -9.2e-4,-17.960467 0.0663,-21.564541 0.39866,-21.365885 0.21988,0.131432 5.53616,4.320739 11.81397,9.309575 l 11.41419,9.0706 -1.00198,1.23881 c -0.55108,0.68134 -3.57644,4.43646 -6.72301,8.3447 -3.14658,3.90824 -5.82683,7.13553 -5.95611,7.17176 -0.12929,0.0362 -0.42216,-1.51416 -0.65082,-3.4453 -0.22867,-1.93115 -0.50311,-3.51118 -0.60986,-3.51118 -0.10676,0 -1.86147,2.92474 -3.89937,6.49941 -2.0379,3.57468 -3.94811,6.90282 -4.24491,7.39588 -0.5236,0.86983 -0.53967,0.25431 -0.54076,-20.70837 z m 106.24375,14.12011 c -2.29374,-4.01886 -4.25818,-7.30703 -4.36542,-7.30703 -0.10725,0 -0.38208,1.58003 -0.61075,3.51118 -0.22867,1.93114 -0.52154,3.48153 -0.65082,3.4453 -0.12929,-0.0362 -2.80954,-3.26352 -5.95611,-7.17176 -3.14657,-3.90824 -6.16926,-7.6601 -6.71709,-8.33747 l -0.99605,-1.23158 11.73333,-9.32019 11.73334,-9.320201 0.0784,10.775891 c 0.0431,5.92674 0.0431,15.61047 0,21.51939 l -0.0784,10.74351 z"
         id="path15" /><text
         xml:space="preserve"
         transform="matrix(0.26458333,0,0,0.26458333,-69.577243,-25.579868)"
         id="text16"
         style="font-style:normal;font-variant:normal;font-weight:normal;font-stretch:normal;font-size:160px;font-family:Calibri;-inkscape-font-specification:Calibri;letter-spacing:2px;word-spacing:0px;white-space:pre;shape-inside:url(#rect17);fill:#0d0d0d;fill-opacity:1;stroke:none;stroke-width:1.00157;stroke-dasharray:none;stroke-opacity:1"
         x="509.36008"
         y="0"><tspan
           x="501.04004"
           y="1175.0874"
           id="tspan23"><tspan
             style="font-family:Ebrima;-inkscape-font-specification:Ebrima;text-align:center;text-anchor:middle"
             id="tspan21">WOLFGARDEN</tspan><tspan
             style="font-family:Caladea;-inkscape-font-specification:Caladea"
             id="tspan22"> </tspan></tspan></text><text
         xml:space="preserve"
         style="font-style:normal;font-variant:normal;font-weight:normal;font-stretch:normal;font-size:11.2889px;line-height:0;font-family:RomanC;-inkscape-font-specification:RomanC;letter-spacing:2.64583px;white-space:pre;inline-size:152.966;fill:#0d0d0d;fill-opacity:1;stroke:none;stroke-width:0.264999;stroke-dasharray:none;stroke-opacity:1"
         x="193.8936"
         y="315.14398"
         id="text17"
         transform="translate(-68.042449,-16.882712)"><tspan
           x="193.8936"
           y="315.14398"
           id="tspan25"><tspan
             style="font-family:'Sitka Display';-inkscape-font-specification:'Sitka Display';text-align:center;text-anchor:middle;stroke-width:0.265"
             id="tspan24">Wróblewscy</tspan></tspan></text></g><g
       id="g15"
       inkscape:label="Beige"
       style="display:none;fill:#3c3d42;fill-opacity:1"><path
         style="fill:#3c3d42;fill-opacity:1"
         d="M 185.67001,228.90553 172.3765,219.39926 168.30237,208.151 c -2.24078,-6.18654 -4.1686,-11.34417 -4.28404,-11.4614 -0.11545,-0.11723 -6.34585,-4.72611 -13.84534,-10.24196 l -13.63543,-10.02883 -5.16195,-11.78529 c -2.83907,-6.48191 -5.16502,-12.00314 -5.16878,-12.26941 -0.004,-0.26626 1.04289,-3.58559 2.32589,-7.37628 l 2.33272,-6.89217 -3.06607,-38.941361 c -1.68634,-21.417748 -3.03863,-39.025413 -3.00508,-39.128144 0.0335,-0.102732 13.63377,7.670445 30.22272,17.273724 l 30.16171,17.460509 6.9461,-3.004902 c 3.82035,-1.652696 7.12012,-3.004901 7.33282,-3.004901 0.2127,0 3.49562,1.354321 7.29538,3.009604 l 6.90867,3.009604 30.15327,-17.454103 c 16.58429,-9.599757 30.18072,-17.375049 30.21427,-17.278427 0.0335,0.09662 -1.31874,17.699288 -3.00508,39.117036 l -3.06608,38.941361 2.33273,6.89217 c 1.28299,3.79069 2.32964,7.11002 2.32588,7.37628 -0.004,0.26627 -2.33206,5.79287 -5.17399,12.28134 L 262.27553,176.44267 248.559,186.531 c -7.54409,5.54859 -13.86798,10.39237 -14.05309,10.76396 -0.1851,0.37159 -2.07222,5.49948 -4.19359,11.3953 l -3.85703,10.71968 -13.364,9.52561 c -7.35019,5.23909 -13.53584,9.51451 -13.74588,9.50093 -0.21004,-0.0136 -6.36397,-4.3025 -13.6754,-9.53095 z m 5.63313,-9.08045 c -2.15947,-3.8942 -3.85606,-7.1506 -3.77022,-7.23645 0.0859,-0.0858 2.8007,-0.89118 6.033,-1.78963 l 5.87691,-1.63354 5.8267,1.6144 c 3.20468,0.88792 5.90555,1.69326 6.00192,1.78963 0.0964,0.0964 -1.59161,3.36139 -3.75108,7.25559 -2.15946,3.8942 -3.89241,7.11326 -3.85098,7.15348 0.0649,0.063 14.07251,-10.03499 14.46578,-10.42826 0.0792,-0.0792 -0.27822,-6.26952 -0.79434,-13.75621 -0.51612,-7.48669 -0.89527,-13.98795 -0.84256,-14.44725 0.0655,-0.5705 1.12907,2.09991 3.35696,8.42845 1.79362,5.09494 3.34199,9.35961 3.44082,9.47705 0.0988,0.11744 2.65606,-7.31024 5.68273,-16.50595 3.02667,-9.19571 5.55264,-16.66987 5.61327,-16.60924 0.0606,0.0606 0.48717,3.15417 0.94787,6.87453 0.4607,3.72037 0.90285,6.82952 0.98255,6.90922 0.21561,0.21561 20.97385,-15.66713 21.23176,-16.24503 0.12172,-0.27273 1.42985,-4.52999 2.90695,-9.46058 l 2.68565,-8.96471 -2.04052,-5.58117 -2.04052,-5.58116 2.30854,-32.66825 c 1.2697,-17.967529 2.27894,-32.703459 2.24276,-32.746506 -0.0362,-0.04305 -11.32907,6.331382 -25.0953,14.165397 l -25.02952,14.243659 -7.15069,-1.98439 -7.15069,-1.98439 -6.92844,1.95602 c -3.81064,1.07581 -7.13409,1.90091 -7.38544,1.83356 -0.25136,-0.0673 -11.60178,-6.467708 -25.22316,-14.223026 -13.62139,-7.755317 -24.79924,-14.061874 -24.83968,-14.01457 -0.0404,0.0473 0.96527,14.786073 2.23492,32.752816 l 2.30844,32.66682 -2.04014,5.5932 -2.04014,5.59321 2.81639,9.34708 c 2.4605,8.16592 2.9212,9.42958 3.64578,9.99998 4.9961,3.93297 20.2665,15.39717 20.37055,15.29312 0.0748,-0.0748 0.51293,-3.17993 0.97363,-6.9003 0.4607,-3.72036 0.88726,-6.81392 0.94791,-6.87458 0.0607,-0.0607 2.5857,7.41443 5.61122,16.6113 3.02552,9.19686 5.58272,16.62456 5.68268,16.50599 0.1,-0.11857 1.64926,-4.38416 3.44287,-9.4791 2.22789,-6.32854 3.29149,-8.99895 3.35697,-8.42845 0.0527,0.4593 -0.32644,6.96056 -0.84256,14.44725 -0.51612,7.48669 -0.89542,13.65372 -0.8429,13.70452 0.40411,0.39081 14.45586,10.5368 14.51434,10.47999 0.0414,-0.0402 -1.69152,-3.25932 -3.85099,-7.15352 z m -10.11962,-54.1087 -5.22941,-3.71547 -5.38094,-1.8491 -5.38094,-1.84909 -4.74188,-9.83658 c -2.60804,-5.41012 -4.67643,-9.90203 -4.59643,-9.98204 0.15142,-0.15141 27.69363,10.54472 28.1019,10.91348 0.25275,0.22831 2.68323,19.00247 2.54291,19.64276 -0.052,0.23725 -2.14628,-1.07245 -5.31521,-3.32396 z m 31.0802,3.21125 c 0.007,-1.40021 2.40014,-19.34518 2.60411,-19.52387 0.40403,-0.35394 27.95883,-11.06259 28.10064,-10.92078 0.0745,0.0745 -1.99649,4.56911 -4.60217,9.98804 l -4.73761,9.85259 -5.36775,1.85195 -5.36776,1.85194 -4.94247,3.49215 c -6.11291,4.31912 -5.69009,4.06575 -5.68699,3.40798 z m -68.1332,-55.91248 c -9.2e-4,-17.960467 0.0663,-21.564541 0.39866,-21.365885 0.21988,0.131432 5.53616,4.320739 11.81397,9.309575 l 11.41419,9.0706 -1.00198,1.23881 c -0.55108,0.68134 -3.57644,4.43646 -6.72301,8.3447 -3.14658,3.90824 -5.82683,7.13553 -5.95611,7.17176 -0.12929,0.0362 -0.42216,-1.51416 -0.65082,-3.4453 -0.22867,-1.93115 -0.50311,-3.51118 -0.60986,-3.51118 -0.10676,0 -1.86147,2.92474 -3.89937,6.49941 -2.0379,3.57468 -3.94811,6.90282 -4.24491,7.39588 -0.5236,0.86983 -0.53967,0.25431 -0.54076,-20.70837 z m 106.24375,14.12011 c -2.29374,-4.01886 -4.25818,-7.30703 -4.36542,-7.30703 -0.10725,0 -0.38208,1.58003 -0.61075,3.51118 -0.22867,1.93114 -0.52154,3.48153 -0.65082,3.4453 -0.12929,-0.0362 -2.80954,-3.26352 -5.95611,-7.17176 -3.14657,-3.90824 -6.16926,-7.6601 -6.71709,-8.33747 l -0.99605,-1.23158 11.73333,-9.32019 11.73334,-9.320201 0.0784,10.775891 c 0.0431,5.92674 0.0431,15.61047 0,21.51939 l -0.0784,10.74351 z"
         id="path1" /><text
         xml:space="preserve"
         transform="matrix(0.26458333,0,0,0.26458333,-69.577243,-25.579868)"
         id="text13"
         style="font-style:normal;font-variant:normal;font-weight:normal;font-stretch:normal;font-size:160px;font-family:Calibri;-inkscape-font-specification:Calibri;letter-spacing:2px;word-spacing:0px;white-space:pre;shape-inside:url(#rect15);fill:#3c3d42;fill-opacity:1;stroke:none;stroke-width:1.00157;stroke-dasharray:none;stroke-opacity:1"
         x="509.36008"
         y="0"><tspan
           x="501.04004"
           y="1175.0874"
           id="tspan28"><tspan
             style="font-family:Ebrima;-inkscape-font-specification:Ebrima;text-align:center;text-anchor:middle"
             id="tspan26">WOLFGARDEN</tspan><tspan
             style="font-family:Caladea;-inkscape-font-specification:Caladea"
             id="tspan27"> </tspan></tspan></text><text
         xml:space="preserve"
         style="font-style:normal;font-variant:normal;font-weight:normal;font-stretch:normal;font-size:11.2889px;line-height:0;font-family:RomanC;-inkscape-font-specification:RomanC;letter-spacing:2.64583px;white-space:pre;inline-size:152.966;fill:#3c3d42;fill-opacity:1;stroke:none;stroke-width:0.264999;stroke-dasharray:none;stroke-opacity:1"
         x="193.8936"
         y="315.14398"
         id="text15"
         transform="translate(-68.042449,-16.882712)"><tspan
           x="193.8936"
           y="315.14398"
           id="tspan30"><tspan
             style="font-family:'Sitka Display';-inkscape-font-specification:'Sitka Display';text-align:center;text-anchor:middle;stroke-width:0.265"
             id="tspan29">Wróblewscy</tspan></tspan></text></g></g></svg>
